<svg width="92" height="22" viewBox="0 0 92 22" fill="none" xmlns="http://www.w3.org/2000/svg">
<path d="M17.6874 21.5016C17.2337 21.4706 16.4694 21.425 15.9889 21.4001C14.2781 21.3115 13.2203 21.247 13.0772 21.2225C12.9973 21.2088 12.6809 21.1805 12.3741 21.1595C12.0672 21.1386 11.7399 21.1054 11.6469 21.0858C11.5538 21.0661 11.3358 21.0398 11.1623 21.0273C10.5903 20.986 10.0647 20.9064 9.64834 20.798C9.48697 20.756 9.33317 20.7344 9.30655 20.7499C9.27993 20.7654 9.27301 20.7554 9.29118 20.7276C9.31355 20.6934 9.15201 20.6708 8.7912 20.6577C8.49804 20.647 8.22583 20.6248 8.1863 20.6085C8.14676 20.5922 8.10207 20.5023 8.08699 20.4088C8.0558 20.2156 8.00473 20.1858 7.54096 20.0908C7.36811 20.0554 7.09662 19.9807 6.93765 19.9248C6.77868 19.8689 6.59121 19.8107 6.52103 19.7954C6.32068 19.7517 6.32422 19.6443 6.53278 19.4401C6.75209 19.2253 6.92498 19.1359 7.27686 19.0552C7.50501 19.0028 7.81722 18.7859 7.81997 18.6778C7.82089 18.6415 7.61179 18.5709 7.31399 18.507C7.23423 18.4899 6.97274 18.4588 6.73289 18.4379C6.49305 18.417 6.17409 18.3647 6.02409 18.3218C5.85738 18.274 5.52219 18.2378 5.16182 18.2286C4.52182 18.2123 4.24815 18.1365 4.20775 17.9642C4.19407 17.9058 4.07462 17.8135 3.90407 17.7294C3.74944 17.6532 3.63462 17.573 3.6489 17.5511C3.66318 17.5293 3.64615 17.5206 3.61106 17.5319C3.45347 17.5824 3.21882 17.471 3.13573 17.3061C3.04518 17.1264 3.08783 16.9607 3.22373 16.9642C3.26287 16.9652 3.29547 16.9496 3.2962 16.9296C3.29693 16.9095 3.44503 16.8906 3.62534 16.8875C3.80565 16.8844 3.96099 16.861 3.97055 16.8355C3.98011 16.8101 4.02853 16.7903 4.07816 16.7915C4.12779 16.7928 4.18245 16.7723 4.19964 16.746C4.21684 16.7197 4.25276 16.6988 4.27947 16.6995C4.30619 16.7001 4.31692 16.7177 4.30332 16.7385C4.28972 16.7593 4.34265 16.7771 4.42095 16.7781C4.50502 16.7791 4.56397 16.7537 4.56493 16.7161C4.56584 16.6811 4.58806 16.6665 4.61436 16.6837C4.64065 16.7009 4.6627 16.6941 4.66334 16.6687C4.66525 16.5938 4.53882 16.5632 4.31522 16.5845C4.20018 16.5954 4.00832 16.577 3.88888 16.5436C3.76944 16.5101 3.63909 16.4755 3.59922 16.4667C3.55935 16.4579 3.48856 16.4333 3.44193 16.4121C3.39529 16.3908 3.31347 16.3836 3.26012 16.3961C3.13604 16.4252 3.09538 16.358 3.19132 16.2825C3.23194 16.2505 3.26502 16.2434 3.26484 16.2667C3.26466 16.29 3.28112 16.2876 3.30142 16.2614C3.36388 16.1808 3.56014 16.0928 3.55879 16.146C3.55806 16.173 3.58068 16.1956 3.60898 16.1963C3.63727 16.1971 3.65018 16.1801 3.63767 16.1587C3.6054 16.1033 3.99539 16.1046 4.09307 16.1601C4.14524 16.1897 4.19443 16.187 4.23086 16.1523C4.29629 16.0902 4.49208 16.0696 4.45326 16.1289C4.40802 16.1981 4.56424 16.1752 4.62695 16.1034C4.67161 16.0523 4.71774 16.0472 4.80668 16.0837C4.96042 16.1467 5.01267 16.1465 4.92127 16.0835C4.86758 16.0464 4.8922 16.0361 5.01953 16.0422C5.11297 16.0468 5.35399 16.0299 5.55511 16.0048C5.75624 15.9796 5.97933 15.9576 6.05086 15.9558C6.26354 15.9506 6.20653 15.7868 5.92273 15.5878C5.76059 15.4741 5.68391 15.3895 5.70243 15.3447C5.72052 15.3009 5.75043 15.2923 5.78477 15.3211C5.81443 15.346 5.88286 15.3498 5.93683 15.3297C5.99081 15.3095 6.11648 15.2935 6.21609 15.2942C6.35627 15.2951 6.417 15.2668 6.48482 15.1688C6.59499 15.0096 6.61087 14.9195 6.55005 14.7985C6.52364 14.746 6.52179 14.716 6.54593 14.7318C6.57007 14.7476 6.62079 14.6804 6.65863 14.5825C6.69648 14.4847 6.7521 14.3892 6.78223 14.3703C6.81235 14.3514 6.74959 14.3331 6.64276 14.3296C6.49928 14.3248 6.46786 14.3113 6.52256 14.2779C6.57873 14.2436 6.55832 14.2315 6.43812 14.2279C6.35095 14.2253 6.24218 14.2024 6.1964 14.177C6.15063 14.1516 5.91239 14.0449 5.66698 13.9399C5.17482 13.7292 4.88857 13.6768 3.84222 13.6056C3.04036 13.551 2.95028 13.5388 2.82461 13.4676C2.69668 13.3952 2.03543 13.278 1.61545 13.2533C1.39531 13.2404 1.1996 13.1961 1.05943 13.1273C0.940469 13.069 0.734352 13.0038 0.601395 12.9824C0.33699 12.9399 -0.00147444 12.8103 4.83208e-06 12.7522C0.00055271 12.7321 0.127669 12.6775 0.28256 12.6311C0.520581 12.5596 0.722112 12.55 1.58427 12.569C2.27298 12.5841 2.66499 12.5729 2.79098 12.5342C2.97291 12.4785 3.14718 12.4914 3.59136 12.5934C3.70585 12.6197 4.03149 12.6511 4.31499 12.6632C4.5985 12.6753 4.87207 12.7088 4.92293 12.7378C4.9773 12.7687 5.0887 12.777 5.19336 12.7579C5.29125 12.7401 5.39052 12.7307 5.41397 12.7369C5.50062 12.7602 6.9796 12.7827 7.14438 12.7633C7.42375 12.7304 7.77433 12.7103 8.25743 12.6994C8.50798 12.6938 8.73724 12.6662 8.7669 12.638C8.81961 12.5879 8.73064 12.5601 8.57078 12.5767C8.53727 12.5802 8.5105 12.5579 8.51129 12.5272C8.51211 12.4964 8.48122 12.4824 8.44273 12.4961C8.40423 12.5098 8.34658 12.4877 8.3146 12.4471C8.26792 12.3879 8.24828 12.3856 8.21489 12.4353C8.181 12.4859 8.17348 12.4855 8.1742 12.4333C8.17475 12.3929 8.14119 12.3791 8.08295 12.396C8.02161 12.4138 7.98059 12.3938 7.96019 12.3363C7.94333 12.2888 7.95325 12.2427 7.98221 12.2339C8.0571 12.211 8.18231 12.0858 8.18367 12.0324C8.18557 11.9579 7.99561 11.7823 7.94506 11.8118C7.91922 11.8269 7.91131 11.8072 7.92748 11.7681C7.94982 11.714 7.93052 11.7031 7.84697 11.7227C7.7597 11.7432 7.74374 11.7324 7.76945 11.6702C7.81734 11.5543 7.71534 11.514 7.63199 11.616C7.58631 11.6718 7.56957 11.6776 7.58623 11.6318C7.6156 11.5511 7.39175 11.4152 7.30897 11.4635C7.28044 11.4801 7.27445 11.469 7.29502 11.4375C7.31487 11.4071 7.30796 11.3817 7.27967 11.381C7.25138 11.3803 7.2274 11.4125 7.22637 11.4525C7.22375 11.5554 7.12765 11.5413 7.12613 11.4378C7.12507 11.3656 7.11861 11.3673 7.08333 11.4489C7.06047 11.5018 7.04815 11.5571 7.05594 11.5718C7.06374 11.5865 7.02783 11.6006 6.97616 11.6032C6.86252 11.6088 6.85686 11.5703 6.96075 11.4983C7.02112 11.4565 6.9783 11.4466 6.76371 11.453C6.60175 11.4577 6.50153 11.4427 6.51884 11.4162C6.5351 11.3914 6.50459 11.3816 6.45027 11.3944C6.39337 11.4077 6.35303 11.3934 6.35387 11.3602C6.35469 11.3288 6.32935 11.3183 6.29761 11.3368C6.25705 11.3604 6.25167 11.3431 6.27949 11.2784C6.30127 11.2278 6.32484 11.1568 6.33187 11.1205C6.35375 11.0078 6.47823 10.9779 6.62911 11.0491C6.70835 11.0866 6.74582 11.1183 6.71237 11.1196C6.59302 11.1243 6.6515 11.2192 6.77571 11.2224C6.86708 11.2247 6.89522 11.2055 6.87679 11.1536C6.86274 11.114 6.87356 11.0686 6.90082 11.0527C6.9325 11.0342 6.92834 10.9951 6.8893 10.9445C6.83766 10.8775 6.84005 10.87 6.90473 10.8961C6.94683 10.9131 7.01262 10.9059 7.05095 10.8801C7.106 10.843 7.10251 10.8385 7.03434 10.8585C6.96159 10.8799 6.95365 10.8633 6.98377 10.7525C7.00343 10.6802 7.03748 10.6098 7.05944 10.596C7.13092 10.5512 7.05591 10.3592 6.97777 10.3869C6.92709 10.4049 6.91079 10.3852 6.92347 10.3214C6.93673 10.2547 6.91544 10.2324 6.84418 10.2385C6.7906 10.243 6.77453 10.2353 6.80846 10.2213C6.8424 10.2073 6.85921 10.177 6.84582 10.154C6.83242 10.1311 6.86619 10.0826 6.92085 10.0464C6.97551 10.0101 7.00618 9.96568 6.98899 9.9476C6.97179 9.92951 6.99963 9.91544 7.05084 9.91633C7.12728 9.91767 7.13135 9.90953 7.07354 9.87087C7.02732 9.83997 6.99056 9.84299 6.9666 9.87964C6.94652 9.91036 6.91655 9.92125 6.90001 9.90384C6.86968 9.87193 6.96504 9.66834 7.03064 9.62495C7.08426 9.58947 7.1513 9.36837 7.09922 9.39875C7.0746 9.41311 7.03 9.38335 7.00009 9.33263C6.95169 9.25055 6.96021 9.24175 7.07745 9.25269C7.16048 9.26043 7.20528 9.24241 7.1986 9.20395C7.19277 9.17038 7.20432 9.14593 7.22428 9.1496C7.32407 9.16798 7.38247 9.14073 7.38415 9.07501C7.38517 9.03494 7.40915 9.00275 7.43744 9.00347C7.46573 9.0042 7.47703 8.98447 7.46255 8.95965C7.44808 8.93484 7.46397 8.90416 7.49787 8.89149C7.53506 8.87759 7.52584 8.86606 7.47462 8.86244C7.42792 8.85915 7.39014 8.83967 7.39066 8.81917C7.39121 8.79867 7.31512 8.78355 7.22163 8.78556C7.12814 8.78757 7.06427 8.76992 7.07969 8.74634C7.09511 8.72275 7.06143 8.70227 7.00485 8.70083C6.94827 8.69939 6.91604 8.6767 6.93323 8.6504C6.95042 8.62411 6.939 8.60195 6.90785 8.60115C6.8753 8.60033 6.86509 8.56614 6.88384 8.52076C6.91112 8.45475 6.90409 8.45157 6.84094 8.50132C6.77898 8.55013 6.76574 8.54768 6.76727 8.48769C6.76829 8.44746 6.81313 8.40423 6.86692 8.39161C6.92578 8.37781 6.96575 8.32784 6.96732 8.26607C6.96952 8.17965 6.94874 8.16738 6.83564 8.18833C6.72544 8.20874 6.71655 8.20405 6.78608 8.16219C6.8648 8.11479 6.86363 8.10249 6.76959 7.98859C6.71391 7.92117 6.63588 7.86518 6.59617 7.86417C6.45001 7.86044 6.58205 7.81265 6.77859 7.79814C6.89693 7.7894 6.96925 7.80178 6.95221 7.82783C6.93615 7.85239 6.94487 7.87305 6.97158 7.87373C6.9983 7.87437 7.03178 7.85719 7.04598 7.83546C7.06019 7.81374 7.1438 7.80188 7.23178 7.80911C7.31977 7.81634 7.41764 7.80303 7.44927 7.77954C7.48461 7.7533 7.51845 7.75683 7.53704 7.7887C7.55753 7.82381 7.59694 7.82566 7.65908 7.79441C7.70956 7.76902 7.80164 7.7514 7.86369 7.75525C8.03611 7.76595 8.63261 7.72794 8.67433 7.7036C8.70684 7.68463 9.23874 7.63057 9.40154 7.62968C9.4868 7.62923 9.48334 7.40077 9.39705 7.33333C9.35779 7.30265 9.32236 7.21683 9.31831 7.14261C9.31373 7.05878 9.28811 7.01576 9.25066 7.02905C9.21536 7.04157 9.20153 7.02345 9.21729 6.98531C9.23488 6.94276 9.19395 6.90779 9.09924 6.88445C8.93998 6.84519 8.82872 6.7363 8.87521 6.6652C8.89196 6.63958 8.86223 6.62976 8.80706 6.6427C8.73735 6.65905 8.70981 6.64175 8.71132 6.58258C8.71248 6.53689 8.67001 6.48696 8.61694 6.47163C8.50917 6.44049 8.49329 6.3807 8.57944 6.33044C8.61516 6.3096 8.62265 6.31824 8.59954 6.35359C8.57926 6.3846 8.58078 6.40729 8.6029 6.40403C8.70696 6.38867 8.76408 6.41933 8.76229 6.4896C8.75974 6.58973 8.87735 6.55385 8.90083 6.44733C8.91076 6.40232 8.90074 6.36819 8.87846 6.37148C8.74395 6.39144 8.6686 6.35157 8.67089 6.26164C8.67229 6.20663 8.69495 6.1757 8.72125 6.19289C8.74754 6.21008 8.7702 6.17914 8.7716 6.12413C8.773 6.06913 8.8046 6.0249 8.84181 6.02585C8.87902 6.0268 8.92335 5.99398 8.94032 5.95293C8.95728 5.91187 8.95089 5.89011 8.92612 5.90456C8.90135 5.91901 8.87235 5.903 8.86166 5.86899C8.85097 5.83497 8.847 5.84554 8.85283 5.89247C8.85866 5.9394 8.84362 5.97729 8.81941 5.97667C8.79519 5.97603 8.77604 5.94952 8.77686 5.9177C8.77768 5.88588 8.74633 5.90134 8.70722 5.95207C8.65502 6.01976 8.65076 6.05387 8.69119 6.0803C8.72281 6.10098 8.70351 6.112 8.64588 6.10618C8.55676 6.09717 8.49715 5.96846 8.58312 5.97065C8.60204 5.97111 8.63231 5.90629 8.65038 5.82656C8.67648 5.71141 8.70847 5.68223 8.80588 5.68471C8.87333 5.68642 8.92908 5.66598 8.92976 5.63926C8.9304 5.61255 8.97471 5.5918 9.02814 5.59317C9.13102 5.59579 9.15693 5.66723 9.07281 5.7163C8.983 5.76869 9.06575 5.82568 9.21845 5.81659C9.41725 5.80477 9.46595 5.75138 9.28765 5.74074C9.14876 5.73245 9.1484 5.7317 9.26841 5.70082L9.39072 5.66935L9.28295 5.60712C9.15878 5.53541 9.14238 5.45027 9.25329 5.45309C9.29494 5.45415 9.31495 5.47653 9.29776 5.50283C9.28057 5.52912 9.28965 5.55122 9.31794 5.55194C9.34623 5.55267 9.37049 5.50954 9.37185 5.45611C9.37336 5.39726 9.40671 5.35979 9.45647 5.36106C9.52793 5.36289 9.52658 5.35384 9.44609 5.29151C9.3722 5.23429 9.34836 5.23234 9.32769 5.28183C9.31197 5.31947 9.26642 5.33014 9.21168 5.30899C9.12699 5.27627 9.12664 5.26934 9.20593 5.19399C9.25234 5.14989 9.32153 5.11461 9.35969 5.11558C9.42239 5.11718 9.45195 5.05893 9.43885 4.95963C9.4362 4.93952 9.46811 4.92393 9.50976 4.92499C9.5514 4.92605 9.57342 4.90625 9.55869 4.88099C9.52381 4.82121 9.61744 4.76693 9.6823 4.80933C9.71657 4.83174 9.71388 4.86333 9.67381 4.90919C9.63166 4.95742 9.63051 4.97667 9.6697 4.97767C9.72666 4.97912 9.74359 4.92072 9.73106 4.76597C9.72126 4.64502 9.81458 4.59419 10.0377 4.59896C10.145 4.60125 10.2154 4.58073 10.2091 4.54903C10.2022 4.51463 10.3034 4.49717 10.4898 4.50065C10.6501 4.50363 10.8092 4.48532 10.8433 4.45994C10.8774 4.43457 10.9686 4.42814 11.046 4.44567C11.1461 4.46836 11.2055 4.45412 11.2521 4.39622C11.2881 4.35149 11.2977 4.33092 11.2734 4.35049C11.2491 4.37008 11.1699 4.29151 11.0974 4.1759C11.0249 4.0603 10.9649 3.98549 10.9642 4.00966C10.9635 4.03383 10.9202 4.01293 10.868 3.96322C10.8158 3.91351 10.7743 3.84892 10.7759 3.81968C10.7774 3.79045 10.8 3.80536 10.8261 3.8528C10.8521 3.90024 10.9095 3.93998 10.9536 3.9411C11.0128 3.94261 11.0199 3.92856 10.9806 3.88726C10.9514 3.85653 10.9406 3.79974 10.9566 3.76107C10.9803 3.70357 10.9928 3.70275 11.0251 3.75659C11.0541 3.80505 11.0649 3.79678 11.0662 3.72526C11.0683 3.60376 10.9579 3.44453 10.9039 3.49101C10.8817 3.51008 10.8802 3.49841 10.9005 3.46508C10.9209 3.43175 10.9576 3.41757 10.982 3.43357C11.0065 3.44957 11.0271 3.44081 11.0278 3.41409C11.0284 3.38738 11.0084 3.35207 10.9833 3.33563C10.9219 3.29547 10.9828 3.15492 11.0947 3.07867C11.1445 3.04469 11.1719 2.99383 11.1554 2.96565C11.136 2.93229 11.1655 2.92763 11.24 2.95229C11.3335 2.98324 11.3437 2.97822 11.2954 2.92489C11.2236 2.84555 11.2214 2.69868 11.2917 2.67721C11.34 2.66247 11.3532 2.5788 11.3382 2.38345C11.3343 2.33264 11.2908 2.29688 11.2304 2.2949C11.1723 2.29299 11.1518 2.27697 11.1823 2.25723C11.2588 2.20765 11.3083 2.06223 11.2595 2.03032C11.2366 2.01535 11.2073 2.03031 11.1945 2.06356C11.1817 2.09682 11.1587 2.11214 11.1435 2.09761C11.1283 2.08309 11.136 2.04041 11.1606 2.00278C11.1983 1.94506 11.2206 1.94893 11.3031 2.0275C11.3987 2.11847 11.4011 2.11848 11.4071 2.02823C11.4106 1.97701 11.4236 1.96314 11.4363 1.99714C11.4489 2.03087 11.4816 2.05904 11.509 2.05974C11.5363 2.06047 11.547 2.02817 11.5328 1.98803C11.5185 1.94789 11.5224 1.91871 11.5414 1.92319C11.5604 1.92768 11.6385 1.90737 11.715 1.87808C11.7915 1.84879 11.8738 1.83771 11.8979 1.85346C11.9219 1.86921 11.9423 1.85765 11.943 1.82779C11.9438 1.79792 11.9644 1.78657 11.9889 1.80258C12.0134 1.81858 12.0468 1.81118 12.0632 1.78613C12.0796 1.76108 12.1308 1.74173 12.177 1.74314C12.3112 1.74721 12.3948 1.72257 12.6187 1.613C12.7344 1.55642 12.8593 1.5109 12.8963 1.51185C12.9333 1.51279 12.9732 1.48717 12.9848 1.45491C13.0075 1.39219 13.4613 1.37312 13.4597 1.43495C13.4593 1.45466 13.5194 1.45559 13.5933 1.43702C13.7391 1.40042 14.0479 1.41588 14.2714 1.47097C14.3874 1.49955 14.4231 1.4853 14.4781 1.3885C14.5147 1.32414 14.5322 1.25016 14.517 1.2241C14.4778 1.1569 14.1501 1.10268 13.6147 1.0748C13.3611 1.0616 13.106 1.02327 13.0478 0.989625C12.9896 0.95598 12.9246 0.930899 12.9034 0.933886C12.8822 0.936872 12.7855 0.934705 12.6885 0.929062C12.5558 0.921355 12.5065 0.894635 12.4892 0.821027C12.4706 0.741591 12.4905 0.723564 12.5954 0.724979C12.7186 0.726641 12.7203 0.723452 12.6331 0.653852C12.5514 0.588689 12.5887 0.583383 12.9865 0.603648C13.2311 0.616111 13.4311 0.6397 13.4308 0.656065C13.4305 0.672431 13.4905 0.680343 13.5642 0.673649C13.8941 0.643681 14.397 0.614981 14.5829 0.615522C14.6946 0.615887 14.7758 0.598569 14.7633 0.57713C14.7508 0.555692 14.7802 0.535923 14.8286 0.533199C15.0201 0.522426 15.066 0.514673 15.1508 0.478859C15.1993 0.458395 15.2828 0.36068 15.3365 0.261716C15.4357 0.079048 15.5945 -0.0245473 15.6246 0.0738873C15.6361 0.111526 15.6631 0.110335 15.7144 0.069933C15.7609 0.0333001 15.7993 0.0299588 15.8192 0.0608026C15.8525 0.112147 16.6362 0.132538 16.6879 0.0834162C16.7045 0.0676474 16.7433 0.0768156 16.7742 0.103789C16.8337 0.155842 17.1271 0.155196 17.2169 0.102811C17.2463 0.0856527 17.3452 0.094365 17.4368 0.122172C17.5284 0.14998 18.0064 0.194082 18.499 0.220175C18.9917 0.24627 19.6786 0.285677 20.0256 0.307746C21.8955 0.426696 22.4666 0.453734 23.63 0.478396C24.544 0.49777 24.9048 0.520875 24.9038 0.559967C24.9028 0.599414 24.9203 0.600346 24.9673 0.563336C25.0329 0.511657 25.3257 0.505396 26.168 0.537663C26.4217 0.547381 26.6512 0.554063 26.678 0.55251C26.7047 0.550958 26.9676 0.534961 27.2621 0.516962C27.5566 0.498964 27.8337 0.496466 27.8779 0.51141C27.922 0.526356 27.9701 0.520313 27.9847 0.497988C27.9993 0.475661 28.193 0.457209 28.4151 0.456985C28.6372 0.456803 28.9445 0.437693 29.098 0.414609C29.2514 0.391525 29.6566 0.369984 29.9983 0.366738C30.3401 0.363478 30.7729 0.356431 30.9602 0.351063C31.1474 0.345694 31.341 0.363423 31.3903 0.390459C31.4396 0.417495 31.4684 0.419695 31.4542 0.395344C31.4395 0.370266 31.6322 0.358074 31.8986 0.367223C32.1572 0.376108 32.446 0.359206 32.5403 0.329666C32.6697 0.289115 32.7201 0.289944 32.746 0.333054C32.7695 0.372096 32.781 0.373242 32.7824 0.33667C32.7837 0.303755 32.92 0.282457 33.1369 0.281259C33.619 0.278602 35.0862 0.310935 35.3836 0.330772C35.517 0.339675 35.8232 0.33836 36.0641 0.327868C36.6452 0.302539 37.5469 0.310733 37.5461 0.341336C37.5452 0.379123 37.7786 0.367846 38.1687 0.311264C38.3644 0.28288 38.5832 0.276704 38.6551 0.297543C38.8233 0.346342 39.1495 0.36674 39.1504 0.328518C39.1508 0.312315 39.2112 0.300649 39.2847 0.302593C40.6434 0.338555 43.208 0.31273 43.2945 0.262219C43.3154 0.25004 43.332 0.259434 43.3314 0.283101C43.3308 0.306765 43.3959 0.318206 43.476 0.308525C43.5561 0.298843 43.6597 0.308067 43.7063 0.329058C43.8135 0.377333 44.0074 0.397005 43.9842 0.357254C43.9746 0.340758 44.3426 0.341414 44.802 0.358715C45.2614 0.376014 45.6372 0.39391 45.6371 0.398486C45.6371 0.403061 45.7734 0.414607 45.9403 0.424142C46.1071 0.433677 46.244 0.427393 46.2444 0.410164C46.2448 0.392941 46.3213 0.398081 46.4144 0.421586C46.5075 0.445092 46.5936 0.449205 46.6057 0.430726C46.6178 0.412247 46.8257 0.403415 47.0677 0.411101C47.33 0.419429 47.5085 0.405467 47.5096 0.376522C47.5108 0.347893 47.5257 0.350031 47.546 0.381727C47.5885 0.448358 47.9556 0.454289 48.006 0.389169C48.0306 0.357393 48.0428 0.357703 48.0424 0.390101C48.0424 0.416829 48.1239 0.438223 48.2242 0.437653C48.3245 0.437105 48.4566 0.456856 48.5179 0.481594C48.5845 0.508498 48.6657 0.508277 48.7198 0.481046C48.8071 0.437161 49.011 0.423662 50.0602 0.392329C50.3277 0.384339 50.7656 0.363706 51.0334 0.346476C51.3011 0.329246 51.9028 0.322069 52.3704 0.330527C52.838 0.338992 53.3084 0.331713 53.4158 0.314378C53.5231 0.297038 54.1138 0.291604 54.7284 0.302304C56.1717 0.327429 57.2579 0.315784 57.6905 0.270547C57.88 0.250734 58.2873 0.208126 58.5955 0.175863C58.9037 0.143602 59.4189 0.0987147 59.7402 0.0761138C60.0616 0.053512 60.4232 0.0265805 60.5437 0.0162649C60.9387 -0.0175292 61.3405 0.00176986 61.6653 0.0701323C61.8702 0.11324 62.493 0.149857 63.4027 0.17226C64.1826 0.191472 64.8358 0.216668 64.8542 0.228255C64.8727 0.239845 65.6961 0.284189 66.6841 0.326798C67.6721 0.369409 68.655 0.419012 68.8684 0.437029C70.0666 0.538186 70.9762 0.579832 72.9706 0.624846C73.2511 0.631174 73.557 0.645169 73.6503 0.65594C73.852 0.679234 74.7859 0.745249 75.6637 0.79826C77.5607 0.912828 78.2684 0.949728 79.5468 1.00072C80.3212 1.0316 81.031 1.07066 81.1241 1.0875C81.2173 1.10435 81.4681 1.13059 81.6816 1.14582C82.0766 1.174 82.5277 1.23882 82.5858 1.27578C82.6035 1.28701 82.7669 1.3114 82.9489 1.32997C83.131 1.34854 83.4106 1.38786 83.5702 1.41734C83.7298 1.44683 83.9258 1.4816 84.0057 1.49462C84.0855 1.50764 84.3282 1.56887 84.5449 1.63069C84.7617 1.69252 84.9845 1.74426 85.0402 1.74568C85.0958 1.7471 85.1409 1.76647 85.1403 1.78874C85.1398 1.811 85.1666 1.83016 85.2 1.83131C85.528 1.84262 86.3118 1.93733 86.4348 1.9805C86.5204 2.01058 86.6351 2.10125 86.6895 2.18199C86.797 2.34142 87.0881 2.50479 87.3565 2.55637C87.6924 2.6209 88.2738 2.68985 88.3956 2.67961C88.4641 2.67385 88.5195 2.69272 88.5188 2.72153C88.5179 2.75035 88.5326 2.75953 88.5511 2.74193C88.5697 2.72434 88.6293 2.75391 88.6836 2.80764C88.738 2.86137 88.9282 2.98607 89.1063 3.08475C89.3657 3.22851 89.4985 3.26979 89.7742 3.29247C90.1384 3.32243 90.2028 3.3657 90.162 3.55312C90.136 3.67257 89.9402 3.76603 89.7273 3.7606C89.6661 3.75904 89.6019 3.77928 89.5848 3.80557C89.5676 3.83187 89.4794 3.85149 89.3888 3.84918C89.133 3.84266 88.7309 3.9314 88.7306 3.99441C88.7306 4.09802 89.0976 4.23398 89.4592 4.26406C89.6551 4.28036 90.1101 4.31412 90.4703 4.33909C91.1979 4.38951 91.2741 4.40467 91.3101 4.5062C91.3632 4.65591 90.6833 5.14316 90.1292 5.35243C89.9505 5.41996 89.8597 5.48901 89.7973 5.60502C89.6903 5.8041 89.7368 5.90128 90.025 6.0809C90.1368 6.1506 90.2275 6.24104 90.2264 6.2819C90.2254 6.32275 90.2565 6.3898 90.2955 6.43089C90.4063 6.54741 90.3761 6.66434 90.2115 6.75595C90.1286 6.80212 89.9648 6.92608 89.8475 7.03141C89.6689 7.19174 89.5953 7.22483 89.3955 7.23472C89.2197 7.24341 89.1348 7.27426 89.073 7.35187C89.0268 7.40981 88.9991 7.47449 89.0114 7.4956C89.0237 7.51671 89.0114 7.53341 88.9841 7.53271C88.9567 7.53198 88.9075 7.57997 88.8747 7.63928C88.8419 7.69859 88.8319 7.73219 88.8526 7.71394C88.9039 7.66851 89.0345 7.81297 88.9957 7.8723C88.9777 7.89992 89.0016 7.91056 89.0527 7.89762C89.1012 7.88536 89.0527 7.9166 88.9441 7.96705C88.8359 8.01749 88.6777 8.05757 88.5926 8.0561C88.5075 8.05463 88.3813 8.07332 88.3121 8.09763C88.2196 8.13013 88.1863 8.12607 88.1864 8.08227C88.1864 8.04952 88.1636 8.05959 88.1358 8.10465C88.0402 8.25943 88.1279 8.43145 88.3683 8.5611C88.4929 8.62828 88.6275 8.73599 88.6674 8.80046C88.7074 8.86493 88.8254 8.94565 88.9298 8.97985C89.3188 9.10728 89.3732 9.36059 89.0306 9.44947C88.8177 9.50471 88.7129 9.65916 88.7727 9.82942C88.8038 9.91801 88.8021 9.95823 88.7672 9.95735C88.6775 9.95506 88.5886 10.0739 88.5908 10.1935C88.5929 10.3117 88.589 10.3136 88.1774 10.3977C88.1102 10.4115 87.9883 10.4783 87.9063 10.5463C87.8244 10.6142 87.6965 10.6996 87.622 10.7359C87.5476 10.7723 87.4859 10.8335 87.4849 10.872C87.4826 10.9622 87.3062 11.0511 87.0961 11.068C86.8665 11.0864 86.7716 11.1437 86.7587 11.2718C86.7479 11.3787 86.9344 11.6118 87.0327 11.6143C87.0928 11.6158 87.3615 11.902 87.3599 11.9628C87.3578 12.0459 87.1813 12.0985 86.8417 12.1173C86.6565 12.1275 86.3951 12.1563 86.2608 12.1813C86.0384 12.2227 85.2448 12.3371 85.0639 12.3538C84.9882 12.3608 84.9508 12.5333 85.0245 12.5352C85.0464 12.5357 85.0415 12.5765 85.0135 12.6257C84.9855 12.6749 84.9775 12.7309 84.9957 12.75C85.0565 12.8141 85.0188 13.4306 84.9498 13.499C84.9138 13.5347 84.7836 13.5681 84.6605 13.5733C84.4619 13.5816 84.3289 13.6545 84.3725 13.7313C84.3809 13.7462 84.3566 13.7857 84.3184 13.8192C84.2803 13.8527 84.2495 13.864 84.25 13.8442C84.2504 13.8245 84.2245 13.8334 84.1923 13.864C84.1496 13.9046 84.1167 13.9048 84.0708 13.8647C84.0249 13.8246 83.9682 13.825 83.8606 13.8664C83.6127 13.9618 83.6897 14.11 84.0228 14.1788C84.3953 14.2557 84.4781 14.2907 84.4196 14.3463C84.4037 14.3614 84.058 14.3723 83.6512 14.3706C82.7862 14.3668 82.6864 14.4039 82.6068 14.7586C82.581 14.8733 82.5061 15.0479 82.4403 15.1465C82.3315 15.3094 82.2455 15.5221 82.2375 15.6477C82.2358 15.6744 82.1607 15.7014 82.0707 15.7077C81.9584 15.7156 81.8986 15.7482 81.8802 15.8117C81.8655 15.8625 81.8344 15.8917 81.8111 15.8764C81.7878 15.8612 81.7682 15.871 81.7675 15.8981C81.7669 15.9253 81.6659 16.0029 81.5433 16.0707C81.1954 16.2628 81.1435 16.4255 81.3971 16.5293C81.5157 16.5779 81.5205 16.6146 81.435 16.818C81.3724 16.9672 81.5299 17.0677 82.0504 17.2107C82.5543 17.3491 82.6946 17.4402 82.547 17.5332C82.4554 17.5909 81.7972 17.5175 80.7622 17.334C80.2933 17.2509 80.0951 17.2838 79.9863 17.4627C79.8777 17.6412 79.7658 17.6919 79.4428 17.7092C79.1751 17.7236 78.9231 17.8496 78.92 17.9708C78.9181 18.0451 79.132 18.1207 79.3799 18.1334C79.5663 18.1429 79.785 18.2765 79.6759 18.3141C79.6417 18.326 79.5805 18.3672 79.5399 18.4058C79.4993 18.4444 79.4664 18.4629 79.4668 18.4469C79.4684 18.3882 79.1692 18.5649 79.1085 18.6586C79.033 18.7753 78.7775 18.9323 78.6768 18.9239C78.4266 18.9028 78.0937 18.9273 78.0927 18.9667C78.0907 19.042 78.3415 19.2641 78.3939 19.2335C78.4203 19.2181 78.4266 19.2289 78.4079 19.2574C78.3893 19.286 78.3962 19.3238 78.4234 19.3416C78.4505 19.3593 78.459 19.3948 78.4423 19.4205C78.4255 19.4461 78.4381 19.5005 78.4704 19.5414C78.5619 19.6576 78.4687 19.7017 78.0972 19.7178C77.9102 19.7259 77.6584 19.7517 77.5375 19.775C77.4166 19.7984 77.0105 19.8568 76.635 19.9049C76.2595 19.953 75.8296 20.031 75.6796 20.0782C75.5263 20.1264 75.2751 20.1606 75.1059 20.1562C74.9404 20.152 74.6456 20.189 74.4509 20.2383C74.1166 20.3231 74.0021 20.3242 72.3975 20.2591C71.4629 20.2211 70.5126 20.1757 70.2859 20.1582C69.6949 20.1125 68.9685 20.0414 68.8688 20.0195C68.8218 20.0092 68.2537 19.9724 67.6062 19.9377C66.6805 19.888 66.2887 19.8871 65.7715 19.9337C65.4098 19.9662 64.7451 19.9967 64.2944 20.0014C63.8438 20.0062 63.3951 20.0177 63.2974 20.0271C62.9602 20.0595 61.8038 20.107 61.1252 20.1164C60.7509 20.1215 60.0724 20.1369 59.6177 20.1505C59.1629 20.1642 58.244 20.1748 57.5757 20.1741C56.9075 20.1735 56.2949 20.1784 56.2146 20.1852C56.1342 20.1919 55.585 20.1992 54.9941 20.2013C54.4032 20.2034 53.8563 20.2111 53.7786 20.2186C53.6292 20.2329 53.2612 20.2488 51.9589 20.2971C50.9368 20.3351 50.1692 20.3856 49.5354 20.4566C49.2598 20.4875 48.9508 20.5107 48.8487 20.5081C48.7467 20.5055 48.5993 20.5222 48.5212 20.5454C48.4431 20.5685 48.241 20.5952 48.0722 20.6048C47.9033 20.6144 47.5522 20.6602 47.2919 20.7066C47.0317 20.7529 46.6873 20.7992 46.5266 20.8093C46.366 20.8195 46.0701 20.8449 45.8691 20.8657C45.668 20.8866 45.3721 20.9113 45.2115 20.9206C45.0509 20.93 44.6816 20.9652 44.3909 20.999C44.1002 21.0328 43.6837 21.0688 43.4654 21.0791C43.2471 21.0894 42.9428 21.111 42.7892 21.1271C42.6355 21.1433 42.2416 21.1541 41.9137 21.1511C41.5858 21.1481 41.1531 21.1614 40.9521 21.1807C40.5554 21.2188 39.7111 21.2431 39.0552 21.2354C38.8281 21.2327 38.5434 21.2464 38.4226 21.2658C38.3018 21.2853 37.4705 21.2942 36.5752 21.2856C35.6799 21.277 34.9002 21.2784 34.8425 21.2888C34.7848 21.2991 34.3143 21.3116 33.7968 21.3165C33.2794 21.3214 32.7466 21.3295 32.6128 21.3345C32.479 21.3395 31.9867 21.3472 31.5188 21.3516C31.0508 21.356 30.4819 21.3691 30.2543 21.3808C30.0268 21.3924 29.819 21.3955 29.7924 21.3877C29.7659 21.3799 29.4267 21.3891 29.0386 21.4081C28.6505 21.4271 28.1141 21.4491 27.8465 21.457C27.579 21.4649 27.2834 21.4784 27.1896 21.487C27.0959 21.4955 26.7238 21.509 26.3628 21.517C26.0018 21.525 25.6953 21.538 25.6816 21.546C25.668 21.5539 25.3832 21.5676 25.0488 21.5763C24.7145 21.5851 24.3969 21.5999 24.3432 21.6092C24.2449 21.6264 20.8027 21.6017 19.3137 21.5732C18.8729 21.5648 18.141 21.5326 17.6873 21.5017L17.6874 21.5016ZM7.83008 15.2375C7.8543 15.2365 7.8349 15.1901 7.78697 15.1344C7.71237 15.0476 7.65098 15.0338 7.36049 15.0384C7.17386 15.0414 7.01285 15.067 7.0027 15.0953C6.97613 15.1694 7.31088 15.2606 7.56709 15.2492C7.68752 15.2437 7.80587 15.2385 7.83008 15.2375ZM9.04371 12.6138C9.04399 12.602 9.0224 12.5918 8.99568 12.5911C8.96897 12.5905 8.94652 12.613 8.9458 12.6413C8.94507 12.6696 8.96669 12.6798 8.99383 12.664C9.02096 12.6481 9.04341 12.6256 9.04371 12.6138ZM6.60347 11.1016C6.60375 11.0911 6.57037 11.0686 6.52931 11.0517C6.48651 11.034 6.46681 11.0416 6.48312 11.0696C6.51047 11.1165 6.60247 11.1409 6.60347 11.1016ZM7.18322 9.5672C7.13647 9.51836 7.13074 9.5238 7.15534 9.5937C7.17236 9.64206 7.19883 9.66971 7.21417 9.65514C7.2295 9.64057 7.21557 9.60099 7.18322 9.5672ZM7.58664 8.99424C7.53989 8.9454 7.53416 8.95084 7.55876 9.02074C7.57578 9.0691 7.60225 9.09675 7.61759 9.08218C7.63292 9.06761 7.61899 9.02803 7.58664 8.99424ZM7.22342 8.70633C7.20759 8.67919 7.185 8.65674 7.17322 8.65644C7.16144 8.65617 7.15125 8.67776 7.15057 8.70447C7.14993 8.73119 7.17248 8.75363 7.20077 8.75435C7.22906 8.75508 7.23925 8.73346 7.22342 8.70633ZM9.2101 6.43939C9.1754 6.42446 9.13346 6.42512 9.11691 6.44085C9.10036 6.45658 9.12876 6.46879 9.18001 6.46798C9.23665 6.46707 9.24846 6.45588 9.2101 6.43939ZM9.20423 6.31196C9.13148 6.24873 9.01633 6.0565 9.01775 6.00067C9.01821 5.98368 9.05115 5.99827 9.09101 6.0331C9.18542 6.11561 9.24273 6.06031 9.16503 5.96168C9.09672 5.87498 8.97072 5.93906 8.96758 6.0621C8.96661 6.10048 8.94876 6.12073 8.92792 6.10711C8.90709 6.09349 8.88579 6.12446 8.88059 6.17594C8.87426 6.23865 8.9022 6.27033 8.96526 6.27194C9.01703 6.27326 9.05883 6.29619 9.05815 6.32291C9.05751 6.34962 9.1061 6.37204 9.16623 6.37272C9.26005 6.37379 9.26544 6.36516 9.20423 6.31196ZM8.91545 6.20063C8.91573 6.18885 8.9382 6.16626 8.96533 6.15043C8.99247 6.1346 9.01408 6.1448 9.01336 6.17309C9.01263 6.20138 8.99019 6.22397 8.96348 6.22329C8.93676 6.22265 8.91515 6.21241 8.91545 6.20063ZM9.8002 5.21179C9.80469 5.15176 9.7971 5.12983 9.78333 5.16306C9.76956 5.19629 9.73886 5.21077 9.71512 5.19525C9.69137 5.17972 9.68409 5.20127 9.69895 5.24313C9.73828 5.354 9.79077 5.33775 9.8002 5.21179ZM9.55135 5.16576C9.60578 5.08251 9.5467 5.06308 9.47804 5.14165C9.43855 5.18684 9.43416 5.21461 9.46636 5.21543C9.49477 5.21616 9.53302 5.19381 9.55135 5.16576ZM11.1704 3.53863C11.1707 3.52813 11.1384 3.50613 11.0987 3.48973C11.0591 3.47333 11.0261 3.48108 11.0254 3.50696C11.0248 3.53284 11.057 3.55484 11.0971 3.55586C11.1371 3.55689 11.1701 3.54913 11.1704 3.53863ZM2.97213 16.2802C2.97277 16.2551 2.99549 16.2215 3.02263 16.2057C3.04976 16.1899 3.0711 16.211 3.07004 16.2526C3.06898 16.2943 3.04625 16.3278 3.01953 16.3271C2.99282 16.3265 2.97149 16.3053 2.97213 16.2802ZM5.05405 12.3367C5.083 12.3092 5.13511 12.297 5.16985 12.3096C5.20592 12.3226 5.18334 12.3441 5.11722 12.3596C5.03589 12.3786 5.01709 12.3718 5.05405 12.3367ZM5.7451 12.3625C5.69522 12.3284 5.69195 12.312 5.73432 12.3083C5.84114 12.2991 5.86715 12.292 5.9267 12.2562C5.95876 12.237 6.00016 12.2472 6.01869 12.279C6.03974 12.3151 6.03167 12.3232 5.9972 12.3007C5.96449 12.2793 5.94122 12.2954 5.94007 12.3403C5.9379 12.4257 5.852 12.4355 5.7451 12.3625ZM5.49778 12.2468C5.53548 12.211 5.57098 12.2092 5.60179 12.2416C5.63259 12.274 5.61305 12.2926 5.54455 12.296C5.46622 12.2999 5.45468 12.2878 5.49778 12.2468ZM6.73825 11.5344C6.73931 11.4927 6.76169 11.4727 6.78799 11.4899C6.81428 11.5071 6.83527 11.5417 6.83463 11.5669C6.83399 11.592 6.81161 11.612 6.7849 11.6113C6.75818 11.6107 6.73719 11.576 6.73825 11.5344ZM6.81296 10.724C6.89602 10.5737 6.90442 10.5695 6.89287 10.6839C6.88725 10.7395 6.85369 10.7953 6.81829 10.8079C6.76691 10.8261 6.76583 10.8092 6.81296 10.724ZM7.14751 8.94938C7.10687 8.92281 7.13032 8.90053 7.2201 8.88042C7.38284 8.84395 7.41396 8.8669 7.29605 8.93642C7.24737 8.96513 7.18052 8.97096 7.14751 8.94938ZM8.21261 5.68877C8.22916 5.67304 8.27109 5.67238 8.3058 5.6873C8.34415 5.7038 8.33235 5.71501 8.27571 5.7159C8.22445 5.71672 8.19606 5.7045 8.21261 5.68877ZM8.36327 5.49819C8.37982 5.48246 8.42176 5.48181 8.45646 5.49673C8.49482 5.51322 8.48301 5.52444 8.42637 5.52533C8.37512 5.52615 8.34672 5.51392 8.36327 5.49819ZM9.24409 4.8979C9.24327 4.84665 9.2555 4.81825 9.27123 4.8348C9.28695 4.85135 9.28761 4.89329 9.27269 4.928C9.2562 4.96635 9.24498 4.95454 9.24409 4.8979ZM11.009 2.24134C10.966 2.21193 10.9605 2.19269 10.9952 2.19313C11.0271 2.19358 11.0661 2.21606 11.0819 2.24319C11.1176 2.30444 11.1008 2.30402 11.009 2.24134Z" fill="#44C539"/>
</svg>
